# xmcd
#
# Track frame offsets: 
#        150
#        21737
#        41480
#        58390
#        86972
#        101552
#        126367
#        147777
#        161710
#
# Disc length: 2383 seconds
#
# Revision: 0
# Processed by: cddbd v1.5.2PL0 Copyright (c) Steve Scherf et al.
# Submitted via: ExactAudioCopy v1.0b3
#
DISCID=87094d09
DTITLE=Phil CarmenKünstler - Phrases, Patterns And Shades
DYEAR=1982
DGENRE=Pop
TTITLE0=Sing Happy Birsday (An' The Candle Burns Down)
TTITLE1=Walkin' On Air
TTITLE2=So Lonely
TTITLE3=Sediction
TTITLE4=Where Are We Goin'
TTITLE5=Phrases, Patterns And Shades
TTITLE6=Panatlantic Writin' Man
TTITLE7=Dreamer, Dream On
TTITLE8=Time To Go
EXTD=
EXTT0=
EXTT1=
EXTT2=
EXTT3=
EXTT4=
EXTT5=
EXTT6=
EXTT7=
EXTT8=
PLAYORDER=
